<?xml version="1.0" encoding="UTF-8" standalone="no"?>
<!-- Created with Inkscape (http://www.inkscape.org/) -->

<svg
   version="1.1"
   id="svg1"
   width="690.83618"
   height="842.12836"
   viewBox="0 0 690.83618 842.12836"
   sodipodi:docname="logo_original.png"
   xmlns:inkscape="http://www.inkscape.org/namespaces/inkscape"
   xmlns:sodipodi="http://sodipodi.sourceforge.net/DTD/sodipodi-0.dtd"
   xmlns="http://www.w3.org/2000/svg"
   xmlns:svg="http://www.w3.org/2000/svg">
  <defs
     id="defs1" />
  <sodipodi:namedview
     id="namedview1"
     pagecolor="#ffffff"
     bordercolor="#000000"
     borderopacity="0.25"
     inkscape:showpageshadow="2"
     inkscape:pageopacity="0.0"
     inkscape:pagecheckerboard="0"
     inkscape:deskcolor="#d1d1d1">
    <inkscape:page
       x="0"
       y="0"
       width="690.83618"
       height="842.12836"
       id="page2"
       margin="0"
       bleed="0" />
  </sodipodi:namedview>
  <g
     inkscape:groupmode="layer"
     inkscape:label="Image"
     id="g1"
     transform="translate(-1026.946,-260.53232)">
    <g
       id="g2"
       transform="translate(-36.01023,-86.424552)"
       inkscape:export-filename="logo_icon.png"
       inkscape:export-xdpi="96"
       inkscape:export-ydpi="96">
      <path
         style="fill:#e5a15a"
         d="m 1096.7209,1188.3875 c -0.6854,-0.6854 4.3752,-11.1414 13.2552,-27.3875 3.1566,-5.775 9.2468,-17.25 13.5337,-25.5 4.287,-8.25 15.6637,-29.85 25.2816,-48 9.6179,-18.15 22.3146,-42.225 28.215,-53.5 5.9003,-11.275 13.5158,-25.675 16.9233,-32 l 6.1954,-11.5 -8.8125,-7.91266 C 1158.6116,953.22572 1134.485,923.47506 1112.9839,886 1105.4387,872.84926 1093,847.94915 1093,845.99584 c 0,-0.43472 8.4375,-5.72136 18.75,-11.74809 10.3125,-6.02673 33.6,-19.62189 51.75,-30.21146 18.15,-10.58957 33.3977,-19.62505 33.8838,-20.07884 0.5025,-0.46908 -1.3084,-7.43348 -4.197,-16.14126 -5.498,-16.57359 -8.3733,-29.35838 -10.3042,-45.81619 -0.6776,-5.775 -1.6584,-11.0625 -2.1797,-11.75 -0.7392,-0.97491 -13.7997,-1.25 -59.3465,-1.25 h -58.3987 l 0.2712,-19.75 0.2711,-19.75 58.9581,-0.25808 c 32.4269,-0.14194 59.3008,-0.60084 59.7198,-1.01977 0.4189,-0.41894 1.9098,-6.97807 3.313,-14.57585 2.6915,-14.57251 7.1744,-29.66624 13.6629,-46.0025 2.975,-7.48998 3.6467,-10.17929 2.7979,-11.20199 -0.6143,-0.74017 -5.4672,-3.91176 -10.7843,-7.04797 -5.3171,-3.13621 -20.0174,-11.86602 -32.6674,-19.39958 -12.65,-7.53355 -29.525,-17.43663 -37.5,-22.00684 -18.5473,-10.62884 -20.9726,-12.21618 -20.9876,-13.73652 -0.016,-1.63321 15.6201,-29.21846 17.8755,-31.53563 1.6618,-1.70731 2.6886,-1.23439 23.6746,10.90359 12.0656,6.97856 30.7125,17.71572 41.4375,23.86035 10.725,6.14462 24.0974,13.95051 29.7164,17.34642 5.6191,3.3959 10.8559,6.17437 11.6374,6.17437 0.7815,0 4.0353,-3.2625 7.2306,-7.25 8.9348,-11.14989 25.8142,-27.54491 37.1656,-36.09897 5.6375,-4.24826 10.25,-8.20008 10.25,-8.78182 0,-1.02148 -11.8948,-22.21642 -29.9513,-53.36921 -16.83,-29.03677 -22.5267,-39.06579 -26.0207,-45.80917 l -3.528,-6.80918 2.7097,-2.19082 c 4.6848,-3.78768 28.8917,-16.81794 30.6238,-16.48438 0.9096,0.17517 3.502,3.46288 5.7608,7.30602 7.0296,11.96002 21.1223,36.81017 37.9077,66.84407 8.87,15.8711 16.8278,29.2485 17.6838,29.72756 1.0517,0.58856 5.5708,-0.59995 13.9353,-3.66493 15.3044,-5.60795 35.5185,-10.9085 47.401,-12.42954 4.9379,-0.63207 9.945,-1.53296 11.1269,-2.00198 l 2.1491,-0.85277 -0.5533,-59.71809 c -0.5303,-57.2471 -0.4769,-59.77393 1.2921,-61.06744 2.2432,-1.64023 31.8159,-1.9261 35.9675,-0.34769 l 2.6345,1.00165 -0.2295,59.45307 c -0.1705,44.17752 0.071,59.81485 0.9391,60.86113 0.6607,0.79604 4.0988,1.70761 7.9101,2.09722 14.0116,1.4324 39.6833,8.16407 56.5494,14.8285 9.6376,3.80819 8.4329,4.78988 19.9342,-16.24323 4.6616,-8.525 13.3465,-24.05 19.2999,-34.5 5.9533,-10.45 14.7226,-25.95329 19.4874,-34.45176 4.7647,-8.49846 9.3376,-15.8772 10.1619,-16.3972 2.6478,-1.67014 32.9454,15.10513 33.6214,18.61559 0.18,0.93452 -3.0241,7.44433 -7.1202,14.46625 -9.9737,17.09785 -22.5258,39.08676 -30.7652,53.89497 -3.7115,6.67032 -7.8313,13.87032 -9.1551,16 -1.3239,2.12968 -4.5888,7.90322 -7.2554,12.83008 l -4.8483,8.95793 3.4157,2.80334 c 1.8786,1.54184 8.3657,6.75587 14.4157,11.58673 7.3758,5.88951 15.0244,13.38128 23.2148,22.73873 6.7182,7.67544 12.9228,14.10413 13.788,14.28598 0.8653,0.18185 8.4186,-3.69585 16.7852,-8.61711 20.2827,-11.93034 83.6408,-48.65927 86.3926,-50.0821 1.6964,-0.87717 2.4899,-0.81805 3.5742,0.26627 2.7393,2.73925 17.8901,30.61113 17.5631,32.30941 -0.1954,1.01462 -5.7143,4.7977 -13.3257,9.13453 -7.1457,4.07146 -23.7922,13.8095 -36.9922,21.64009 -13.2,7.83059 -29.0851,17.11313 -35.3003,20.62786 -6.2152,3.51472 -12.6501,7.51541 -14.2998,8.89041 l -2.9995,2.5 3.8988,9.54421 c 6.6038,16.16623 10.4086,28.78533 13.7054,45.45579 l 3.1642,16 59.4156,0.5 59.4156,0.5 0.8776,11.13792 c 0.4827,6.12585 0.5548,15.01335 0.1602,19.75 L 1752.8205,709 h -58.2878 c -45.4581,0 -58.4964,0.27514 -59.2357,1.25 -0.5213,0.6875 -1.4939,6.425 -2.1614,12.75 -1.5918,15.08478 -5.2423,31.15881 -10.6319,46.81489 -4.0814,11.85586 -4.2569,12.79111 -2.6853,14.30662 1.4999,1.44633 18.5278,11.54795 83.9316,49.79167 13.6604,7.98765 19.25,11.77687 19.25,13.04957 0,5.35032 -26.9038,53.38191 -40.3007,71.9494 -15.3156,21.2265 -41.0752,49.62052 -57.8899,63.8102 -4.2952,3.6246 -7.8094,7.26137 -7.8094,8.08171 0,0.82035 8.6254,17.73754 19.1675,37.59374 10.5421,19.8562 23.7348,44.8772 29.3172,55.6022 5.5823,10.725 14.6737,28.05 20.203,38.5 23.8295,45.0361 33.3123,63.5314 33.3123,64.9728 0,1.3748 -8.6174,1.5117 -80.75,1.2831 l -80.75,-0.2559 -2.0645,-8.5 c -6.9386,-28.5669 -24.3501,-57.531 -45.7203,-76.0559 -20.1057,-17.4287 -44.7896,-29.6751 -71.7152,-35.58 -12.0993,-2.6534 -47.6709,-2.6821 -60,-0.048 -36.0884,7.7092 -70.631,29.0832 -90.208,55.8183 -14.6195,19.9647 -22.5392,36.8802 -28.4973,60.8659 l -0.8694,3.5 -80.5401,0.2559 c -44.2971,0.1407 -80.821,-0.025 -81.1643,-0.3684 z m 128.2173,-40.0251 c 2.5622,-0.5125 3.5111,-1.4451 4.8333,-4.75 5.6104,-14.0243 17.344,-34.5472 25.894,-45.2904 11.8199,-14.8521 29.3705,-30.7771 46.1165,-41.8451 4.0051,-2.6471 6.9301,-5.1089 6.5,-5.4707 -0.4301,-0.3618 -6.857,-3.0429 -14.282,-5.9579 -15.5794,-6.1165 -36.6772,-16.4697 -49.8963,-24.4854 -5.0457,-3.0596 -9.569,-5.5629 -10.0518,-5.5629 -0.8092,0 -9.5238,16.2186 -36.8062,68.5 -5.7402,11 -10.7963,20.45 -11.2358,21 -1.3074,1.6362 -22.0099,41.7466 -22.0099,42.6435 0,0.4537 12.4875,0.9519 27.75,1.1072 15.2625,0.1552 28.2563,0.3873 28.875,0.5158 0.6188,0.1284 2.5597,-0.053 4.3132,-0.4041 z m 403.3676,-0.3553 24.8058,-0.01 -6.6877,-12.75 c -8.5013,-16.2077 -23.4778,-44.5687 -33.4001,-63.25 -4.2358,-7.975 -12.6115,-23.8911 -18.6126,-35.3691 -6.0012,-11.478 -11.3753,-21.0509 -11.9425,-21.2731 -0.5672,-0.2221 -5.9672,2.5752 -12,6.2162 -17.0305,10.2787 -49.2163,25.0993 -60.7187,27.9591 -1.5125,0.376 -2.75,1.0163 -2.75,1.4228 0,0.4065 4.6125,3.7962 10.25,7.5326 29.9767,19.868 51.6434,45.6683 65.7877,78.3387 2.3032,5.32 4.9245,10.2759 5.825,11.013 1.1787,0.9649 3.4579,1.1769 8.1373,0.7571 3.575,-0.3207 17.6626,-0.5863 31.3058,-0.5902 z M 1442,1023.4624 c 30.066,-3.8288 59.1406,-12.306 85.7354,-24.99757 51.8694,-24.75312 94.8301,-62.3395 127.9744,-111.96483 9.3432,-13.98914 14.2902,-22.53807 14.2902,-24.6948 0,-0.89088 -4.2937,-4.02466 -10.25,-7.481 -5.6375,-3.27135 -21.1382,-12.33257 -34.446,-20.13605 C 1611.9962,826.38467 1600.4462,820 1599.6373,820 c -0.809,0 -3.9822,3.58408 -7.0518,7.96462 -7.856,11.21133 -21.1874,26.30509 -30.503,34.53538 -4.4081,3.89451 -7.9585,7.84335 -8.0028,8.90098 -0.044,1.04554 3.8375,9.14554 8.6252,18 11.0946,20.51875 24.2653,45.89481 24.2821,46.78478 0.033,1.73924 -28.2634,23.01803 -30.8579,23.20507 -1.7124,0.12345 -6.6564,-8.7221 -37.1075,-66.39083 -18.8354,-35.67087 -32.2738,-60.92897 -49.7457,-93.5 -3.8355,-7.15 -10.7017,-19.975 -15.2584,-28.5 -4.5566,-8.525 -12.0312,-22.475 -16.6101,-31 -4.5788,-8.525 -12.7535,-24.01994 -18.1659,-34.4332 -5.4124,-10.41327 -10.3306,-19.09649 -10.9293,-19.29606 -1.2592,-0.41975 -4.542,5.30252 -17.3419,30.22926 -5.0837,9.9 -11.1486,21.375 -13.4776,25.5 -2.329,4.125 -6.3726,11.775 -8.9858,17 -4.487,8.97182 -12.401,23.84526 -37.5119,70.5 -10.28,19.09962 -35.581,66.94003 -59.2325,112 -6.0625,11.55 -12.7642,24.2413 -14.8926,28.2029 -2.1284,3.96159 -3.8699,7.59567 -3.8699,8.07572 0,2.88005 41.2222,24.01988 60.5,31.02608 19.6085,7.1263 50.6188,14.0095 72.9042,16.1821 12.2605,1.1953 40.2701,0.4273 55.5958,-1.5244 z m 31.6043,-27.00099 c -1.2898,-1.28976 -11.244,-20.48797 -45.6076,-87.96141 -15.1257,-29.6994 -18.8495,-36.5 -19.9862,-36.5 -0.902,0 -13.6327,24.3818 -46.4702,89 -16.3719,32.21692 -18.2851,35.52835 -20.6876,35.80651 -2.9975,0.34706 -33.7644,-11.04559 -34.9321,-12.93501 -0.8171,-1.32206 9.2313,-21.61327 37.5724,-75.8715 9.6241,-18.425 23.3163,-44.975 30.4272,-59 27.024,-53.29995 32.9724,-64.5 34.2565,-64.5 0.7278,0 3.9587,5.4 7.1797,12 3.221,6.6 12.2768,24.375 20.124,39.5 7.8472,15.125 22.2576,43.025 32.023,62 9.7654,18.975 23.5471,45.56402 30.626,59.08672 7.0788,13.5227 12.8706,25.28705 12.8706,26.14301 0,0.85596 -0.7875,1.86843 -1.75,2.24994 -3.8225,1.51513 -21.1341,7.84631 -27.4912,10.05404 -5.8086,2.01727 -6.9366,2.1456 -8.1545,0.9277 z m -248.5619,-53.53577 c 7.7558,-14.38628 33.631,-63.20287 35.8435,-67.62301 l 2.101,-4.19736 -14.2765,-14.30264 c -7.885,-7.89951 -18.2146,-19.56297 -23.0731,-26.05263 -4.8382,-6.4625 -8.9352,-11.75 -9.1045,-11.75 -0.1692,0 -8.3459,4.765 -18.1703,10.58888 -9.8244,5.82388 -25.6044,15.16138 -35.0667,20.75 -9.4624,5.58862 -17.2249,10.66422 -17.25,11.27912 -0.069,1.68161 13.2813,23.52342 21.3186,34.87874 8.8144,12.45327 24.4258,31.05693 32.7957,39.08165 10.3338,9.90756 18.196,16.46897 19.3032,16.10948 0.5702,-0.18512 3.0808,-4.12812 5.5791,-8.76223 z M 1294.7595,812 c 6.2833,-11.825 16.2727,-30.725 22.1986,-42 35.605,-67.74461 55.4933,-105.23398 62.7321,-118.25 l 5.4224,-9.75 h 22.8213 c 17.0576,0 23.0735,0.3157 23.8201,1.25 0.5494,0.6875 5.1644,9.125 10.2556,18.75 5.0912,9.625 12.0626,22.675 15.492,29 3.4294,6.325 14.2274,26.8 23.9955,45.5 9.768,18.7 20.3329,38.725 23.4775,44.5 3.1446,5.775 10.586,19.88011 16.5364,31.34469 5.9504,11.46458 11.5066,21.10856 12.347,21.43107 2.3414,0.89846 19.8448,-18.77386 29.6071,-33.27576 6.6014,-9.80639 17.7964,-33.02713 21.9361,-45.5 7.9708,-24.01592 11.1306,-52.06747 8.5372,-75.78941 -3.6125,-33.04223 -13.9143,-60.9266 -33.2557,-90.0149 -10.8287,-16.28556 -24.1695,-30.15828 -41.6888,-43.35094 -14.7307,-11.09267 -26.3721,-17.68026 -41.9939,-23.76324 -32.7867,-12.76685 -56.5642,-16.81988 -83,-14.14793 -15.9932,1.61649 -24.1812,3.42271 -41.5,9.1546 -29.8709,9.88618 -48.8332,21.38899 -73.4774,44.57255 -26.7564,25.17043 -45.9232,60.21641 -53.5089,97.83927 -5.2328,25.95321 -5.3444,46.3711 -0.404,73.90634 4.441,24.75182 17.9928,55.25686 33.4034,75.19113 8.2387,10.65716 21.9585,25.39917 23.4045,25.14838 0.7797,-0.13522 6.5585,-9.92085 12.8419,-21.74585 z"
         id="path6" />
      <path
         style="fill:#cf6f47"
         d="m 1097,1187.3487 c 0,-0.9082 6.0277,-12.9457 13.3948,-26.75 15.0889,-28.2729 46.7215,-88.1772 62.1485,-117.6937 5.6328,-10.7772 14.1148,-26.8438 18.8491,-35.7035 4.7342,-8.85977 8.6076,-16.48072 8.6076,-16.93548 0,-0.45477 -3.2625,-3.58435 -7.25,-6.95464 -22.7601,-19.23709 -50.9976,-51.45887 -67.04,-76.49913 -14.6866,-22.92417 -33.3576,-59.3199 -31.5504,-61.50202 0.5419,-0.65437 10.0652,-6.46808 21.1629,-12.91935 11.0976,-6.45127 26.4775,-15.39353 34.1775,-19.87168 7.7,-4.47814 21.7534,-12.61444 31.2298,-18.08064 9.4764,-5.46621 17.4322,-10.45526 17.6796,-11.08678 0.2473,-0.63152 -1.3063,-6.13362 -3.4527,-12.2269 -2.1463,-6.09327 -4.8242,-14.68938 -5.951,-19.10246 -2.4423,-9.56582 -5.9802,-31.8214 -5.9951,-37.7134 -0.01,-2.30504 -0.5731,-4.54005 -1.2606,-4.96668 -0.6875,-0.42663 -27.575,-0.79069 -59.75,-0.80902 l -58.5,-0.0333 -0.2718,-19.31292 -0.2718,-19.31293 59.5839,0.20081 c 39.541,0.13327 59.928,-0.14324 60.6067,-0.822 0.5626,-0.56256 2.1254,-7.03711 3.473,-14.38789 2.5116,-13.70039 8.4767,-32.91503 14.8093,-47.70368 1.9639,-4.58624 3.5707,-9.1505 3.5707,-10.14279 0,-1.68073 -7.134,-6.30154 -25.5,-16.51684 -2.75,-1.52957 -14.45,-8.29821 -26,-15.04143 -11.55,-6.74322 -27.7466,-16.09029 -35.9925,-20.77127 -8.2459,-4.68099 -15.3956,-9.14986 -15.8882,-9.93084 -0.6322,-1.00228 1.5411,-5.66126 7.3888,-15.83908 4.5565,-7.93053 8.7887,-14.97308 9.4049,-15.65011 1.2083,-1.32753 0.5384,-1.69364 40.587,22.18289 11.275,6.72203 27.25,16.1944 35.5,21.04972 8.25,4.85532 18.1356,11.02306 21.968,13.7061 3.8325,2.68303 7.8825,4.80909 9,4.72456 6.0419,-0.45696 7.532,0.0353 7.532,2.48824 0,1.82434 0.6774,2.57253 2.75,3.0376 3.5813,0.80357 8.2069,4.50343 6.5,5.19908 -2.1972,0.8955 -1.3663,2.09966 3.5261,5.10999 7.1828,4.41961 6.9862,6.51887 -2.12,22.63657 -8.6106,15.24075 -12.3719,24.60427 -16.5266,41.14192 -6.916,27.52892 -8.5888,49.05618 -5.6676,72.93896 2.9706,24.28658 8.4373,42.28562 19.1973,63.20653 9.7466,18.95071 22.3866,36.2874 36.315,49.80881 6.0727,5.8953 5.2336,6.43508 13.2141,-8.5 4.5138,-8.44736 14.6403,-27.13328 36.3095,-67 3.7368,-6.875 11.4941,-21.275 17.2384,-32 5.7443,-10.725 13.4411,-24.59892 17.104,-30.83094 7.0024,-11.91392 13.821,-23.98066 14.5048,-25.66906 0.2481,-0.61251 0.9184,-0.51564 1.73,0.25 1.8078,1.70543 2.925,1.56907 2.925,-0.35699 0,-1.14116 0.5073,-1.39594 1.75,-0.87892 0.9625,0.40044 3.8934,0.95641 6.5132,1.23549 3.9717,0.4231 4.8621,0.9015 5.3584,2.87892 0.3274,1.30432 1.2073,2.3715 1.9554,2.3715 0.7983,0 1.1224,-0.61973 0.7846,-1.5 -0.3166,-0.825 -0.051,-1.5 0.5904,-1.5 0.6413,0 0.9071,0.41891 0.5907,0.9309 -1.018,1.64715 1.6556,2.41341 9.898,2.83685 11.412,0.58627 11.6757,0.5545 14.5076,-1.74809 3.6185,-2.94218 9.0261,-5.24348 10.7587,-4.57861 0.8104,0.31099 1.9954,0.23837 2.6332,-0.16137 3.5177,-2.20452 7.4399,1.28767 8.211,7.31091 0.4065,3.17475 0.2673,3.50368 -1.0278,2.42885 -1.6889,-1.40169 -4.9927,-0.58776 -4.0177,0.98981 0.3479,0.56286 1.0514,0.76448 1.5634,0.44804 0.512,-0.31643 0.9309,0.12623 0.9309,0.98369 0,0.85746 0.6973,1.55902 1.5497,1.55902 3.4721,0 7.2687,3.19067 10.9173,9.17503 3.842,6.30155 18.1924,32.46461 35.0077,63.82497 4.866,9.075 11.9671,22.125 15.7802,29 3.8131,6.875 11.7281,21.49897 17.589,32.49772 5.8609,10.99874 11.3388,20.12405 12.1731,20.27846 1.8897,0.3497 19.0676,-18.56866 27.6892,-30.49465 6.9931,-9.67333 20.6448,-36.44832 24.6993,-48.44273 8.7953,-26.0185 11.9553,-60.18325 8.0186,-86.69528 -1.6202,-10.91149 -8.2295,-38.00747 -10.7753,-44.17522 -0.7874,-1.90756 -1.7002,-5.4933 -2.0285,-7.9683 -0.4013,-3.02589 -1.3805,-5.15516 -2.9892,-6.5 -4.6274,-3.86848 -9.7482,-17.449 -7.5695,-20.07428 0.6508,-0.78415 1.755,-1.42572 2.4539,-1.42572 0.6988,0 1.5311,-0.67917 1.8497,-1.50928 0.3185,-0.8301 1.1542,-1.3926 1.857,-1.25 0.7819,0.15866 1.3994,-1.00199 1.5912,-2.99072 0.2542,-2.63727 0.7484,-3.25 2.6211,-3.25 1.511,0 3.1289,-1.19945 4.6866,-3.47453 1.47,-2.14708 3.5251,-3.7253 5.3789,-4.1309 1.65,-0.361 4.0446,-1.78032 5.3214,-3.15405 1.724,-1.85484 2.6119,-2.20721 3.45,-1.3691 1.8741,1.87412 2.7286,1.28808 2.7286,-1.87142 0,-2 0.5,-3 1.5,-3 1.7617,0 2.0362,-2.6546 0.3332,-3.22228 -1.8895,-0.62982 2.8554,-4.40387 13.1508,-10.46012 5.2338,-3.07876 18.066,-10.78545 28.516,-17.12597 29.016,-17.60539 48.8789,-29.16937 50.1229,-29.18107 0.6176,-0.006 4.2696,5.50194 8.1156,12.23944 3.846,6.7375 7.84,13.69706 8.8757,15.4657 2.4596,4.20048 2.6096,4.06647 -16.6142,14.84479 -8.525,4.77975 -21.8,12.39283 -29.5,16.91794 -7.7,4.52512 -19.175,11.06679 -25.5,14.53705 -21.9732,12.05576 -30.486,17.46698 -30.7934,19.57395 -0.1613,1.10614 1.7914,6.89173 4.3395,12.85687 6.601,15.45299 10.882,29.23106 13.3774,43.0537 1.1915,6.6 2.4945,13.125 2.8954,14.5 l 0.7291,2.5 60.2475,0.25781 60.2476,0.25782 -0.2715,19.24218 L 1752.5,708.5 H 1694 c -32.175,0 -59.0625,0.36406 -59.75,0.80902 -0.7045,0.45594 -1.2546,2.85628 -1.2606,5.5 -0.013,5.78709 -3.406,28.11885 -5.5453,36.49796 -0.8697,3.40616 -3.401,11.69887 -5.6253,18.42824 -2.2243,6.72938 -3.8071,12.8529 -3.5174,13.60783 0.2897,0.75494 5.4029,4.20054 11.3627,7.6569 58.2229,33.76627 90.1553,52.59164 91.7554,54.09328 1.8854,1.76934 1.8433,1.96676 -2.3713,11.10407 -9.4612,20.51217 -28.3384,52.09975 -41.1978,68.93705 -15.568,20.38366 -37.8029,44.33152 -55.1802,59.43107 l -6.8298,5.93458 8.4252,16 c 4.6338,8.8 12.6013,23.875 17.7056,33.5 5.1042,9.625 14.2286,26.95 20.2765,38.5 6.0479,11.55 16.9452,32.25 24.2162,46 24.51,46.35 32.656,62.497 32.0356,63.5008 -0.9897,1.6014 -158.9686,1.3541 -160.2617,-0.2508 -0.554,-0.6875 -1.9421,-4.9812 -3.0849,-9.5417 -8.6742,-34.6167 -31.2931,-66.5542 -61.2773,-86.5223 -53.0047,-35.2986 -119.3165,-35.1563 -172.3756,0.37 -30.5248,20.4382 -52.1687,52.5461 -62.485,92.694 l -1.0921,4.25 h -80.4614 c -74.1308,0 -80.4615,-0.1299 -80.4615,-1.6513 z m 130.7233,-39.5987 c 0.5326,-0.6875 3.1422,-5.975 5.7991,-11.75 5.7086,-12.4079 13.6535,-25.9985 20.6948,-35.4008 11.72,-15.6498 30.9433,-33.3013 47.492,-43.6089 3.965,-2.4697 7.2222,-4.9403 7.2382,-5.4903 0.016,-0.55 -5.2532,-2.9717 -11.7092,-5.3816 -14.4208,-5.383 -38.2881,-16.8852 -51.94,-25.0311 -5.611,-3.348 -10.7927,-6.0873 -11.515,-6.0873 -0.7222,0 -4.7759,6.8625 -9.0081,15.25 -4.2322,8.3875 -14.8526,28.75 -23.6007,45.25 -34.3869,64.8577 -38.0342,71.9179 -37.5538,72.6952 0.2736,0.4426 14.5908,0.8048 31.816,0.8048 23.8717,0 31.5487,-0.2972 32.2867,-1.25 z m 424.7231,0.3368 c 0.3104,-0.5023 -1.1797,-4.2148 -3.3113,-8.25 -2.1316,-4.0353 -10.2886,-19.4868 -18.1267,-34.3368 -7.838,-14.85 -17.508,-33.075 -21.4887,-40.5 -3.9807,-7.425 -11.4636,-21.7068 -16.6287,-31.7374 -5.165,-10.0306 -9.9686,-18.2431 -10.6746,-18.25 -0.7059,-0.01 -5.6559,2.6277 -11,5.8547 -16.8505,10.1751 -41.5978,21.8318 -57.4664,27.0683 -3.7125,1.2251 -6.75,2.62 -6.75,3.0998 0,0.4798 5.5125,4.6046 12.25,9.1662 15.0865,10.2144 32.0443,26.3472 42.8846,40.7984 5.2143,6.9511 10.5786,15.9078 15.8712,26.5 4.3972,8.8 8.6488,17.2375 9.448,18.75 l 1.4532,2.75 h 31.4875 c 17.9183,0 31.7307,-0.3935 32.0519,-0.9132 z M 1430,1024.9624 c 57.9188,-5.1911 112.1856,-27.09766 158,-63.78187 27.3241,-21.87879 47.9396,-44.65181 68.5104,-75.68053 12.0144,-18.12234 14.8817,-23.56357 13.23,-25.10655 -1.0712,-1.00066 -12.1189,-7.59946 -60.3273,-36.03379 -4.9979,-2.94781 -9.5277,-5.35966 -10.0665,-5.35966 -0.5387,0 -3.3904,3.45305 -6.3371,7.67344 -8.3486,11.95741 -19.2896,24.51868 -30.1057,34.56432 -5.4471,5.05902 -9.9038,9.56498 -9.9038,10.01322 0,0.44825 4.6623,9.46266 10.3606,20.03201 18.8172,34.90225 22.6394,42.38454 22.6357,44.31084 -0.01,2.85792 -26.419,23.40617 -30.0871,23.40617 -1.6185,0 -7.3256,-10.36083 -39.66,-72 -30.2793,-57.72148 -38.1212,-72.75225 -43.8244,-84 -3.2071,-6.325 -7.4701,-14.425 -9.4733,-18 -4.9212,-8.78266 -21.3205,-40.50756 -38.5105,-74.5 -11.3182,-22.38117 -14.5916,-28.06443 -16.312,-28.32109 -1.8935,-0.28246 -3.5739,2.5443 -13.9695,23.5 -11.2199,22.61732 -28.4965,56.208 -52.8836,102.82109 -22.1587,42.35372 -44.7601,85.4529 -54.0138,103 -28.359,53.77547 -34.3962,65.59763 -34.0417,66.6613 1.0738,3.22124 35.3619,21.26103 54.7796,28.8208 20.0361,7.8006 52.9036,15.6394 75,17.8874 12.2328,1.2445 33.6786,1.2869 47,0.093 z m -100.5,-31.39764 c -18.2933,-6.77945 -21.9773,-8.37437 -22.9667,-9.94285 -1.1517,-1.82578 2.9211,-10.16907 32.5213,-66.62191 9.9493,-18.975 27.9066,-53.4 39.905,-76.5 26.5976,-51.20693 28.3474,-54.46239 29.2837,-54.48336 0.4089,-0.009 3.9452,6.39586 7.8586,14.23336 3.9133,7.8375 12.8609,25.05 19.8834,38.25 7.0226,13.2 20.0789,38.175 29.0141,55.5 8.9352,17.325 20.1873,38.925 25.0046,48 18.0073,33.92296 21.3573,41.0789 19.8643,42.43243 -1.6269,1.47499 -31.7868,12.56757 -34.1702,12.56757 -0.9086,0 -2.3142,-1.0125 -3.1236,-2.25 -0.8093,-1.2375 -15.3531,-29.44445 -32.3194,-62.68212 -16.9663,-33.23766 -31.3407,-60.59643 -31.9432,-60.79726 -0.6025,-0.20082 -11.3253,19.79363 -23.8285,44.43212 -39.4618,77.76271 -41.3716,81.30378 -43.8189,81.24733 -1.1905,-0.0275 -6.2145,-1.55085 -11.1645,-3.38531 z M 1223.2662,946.75 c 1.4755,-2.8875 6.4274,-12.225 11.0041,-20.75 21.0695,-39.2456 28.7284,-53.96531 28.7127,-55.18317 -0.01,-0.72426 -2.9674,-3.79183 -6.5733,-6.81683 -9.9871,-8.37803 -26.4762,-27.17977 -35.2993,-40.25 -1.7636,-2.6125 -3.7474,-4.74616 -4.4084,-4.74146 -0.8853,0.006 -57.4389,33.14388 -69.702,40.84193 -1.2802,0.80366 -1.0062,1.91234 1.8703,7.56721 8.674,17.05183 29.6849,45.84956 45.5343,62.40975 9.9782,10.42578 23.1665,22.17257 24.8934,22.17257 0.707,0 2.4926,-2.3625 3.9682,-5.25 z m 211.5463,-270.6875 c 0.25,-0.75 -0.125,-1.125 -0.875,-0.875 -0.7219,0.24063 -1.5094,1.02813 -1.75,1.75 -0.25,0.75 0.125,1.125 0.875,0.875 0.7219,-0.24063 1.5094,-1.02813 1.75,-1.75 z M 1385,670 c 0,-0.55 -0.1984,-1 -0.441,-1 -0.2425,0 -0.7191,0.45 -1.059,1 -0.3399,0.55 -0.1415,1 0.441,1 0.5824,0 1.059,-0.45 1.059,-1 z M 1234,568 c 0,-0.55 0.45,-1 1,-1 0.55,0 1,0.45 1,1 0,0.55 -0.45,1 -1,1 -0.55,0 -1,-0.45 -1,-1 z m -0.5,-5 c 0.3399,-0.55 0.8165,-1 1.059,-1 0.2426,0 0.441,0.45 0.441,1 0,0.55 -0.4766,1 -1.059,1 -0.5825,0 -0.7809,-0.45 -0.441,-1 z m 14.2715,-115.75 c -2.319,-2.63788 -5.7715,-9.90793 -5.7715,-12.15338 0,-1.64847 0.6003,-1.94466 3.5577,-1.75546 3.811,0.2438 5.7169,2.12856 4.8788,4.82468 -0.2848,0.91622 -0.05,1.95527 0.5228,2.30902 0.5724,0.35375 1.0407,1.99317 1.0407,3.64317 0,1.72219 -0.4211,2.73977 -0.9885,2.38905 -0.5669,-0.35034 -0.7346,0.0511 -0.3931,0.94098 0.8023,2.09067 -0.9415,1.96935 -2.8469,-0.19806 z m -10.3384,-20.01531 c -1.7658,-1.21602 -8.9165,-11.34372 -12.4119,-17.57936 -3.201,-5.7103 -3.2331,-5.88685 -1.3988,-7.67941 C 1225.3886,400.24999 1251.0037,386 1252.34,386 c 1.0175,0 6.6405,10.35711 6.6506,12.25 0.01,0.9625 -0.4636,1.75 -1.0416,1.75 -0.5781,0 -1.701,1.55551 -2.4953,3.45669 -0.7944,1.90118 -2.4145,4.36054 -3.6003,5.46526 -1.6988,1.58272 -1.9081,2.30716 -0.9872,3.41684 0.9324,1.1235 0.6381,1.756 -1.4556,3.12784 -1.9186,1.25709 -2.3267,2.01727 -1.5175,2.82647 1.8748,1.87483 1.3303,3.91258 -0.8598,3.21747 -1.5289,-0.48525 -2.111,-0.0492 -2.615,1.95899 -0.8838,3.52132 -4.5049,5.47314 -6.9852,3.76513 z m 342.9531,-12.59018 c -1.1626,-1.17948 -2.396,-3.04854 -2.7409,-4.15345 -0.3449,-1.10492 -1.6437,-2.45492 -2.8862,-3 -1.2425,-0.54509 -2.3971,-1.95954 -2.5658,-3.14324 -0.1885,-1.32216 -1.5383,-2.66216 -3.5,-3.47452 -5.1138,-2.11761 -7.33,-4.55435 -7.1045,-7.81139 0.4432,-6.40187 2.6855,-6.56197 13.202,-0.94263 14.1354,7.553 19.3669,11.02743 18.8058,12.48958 -0.2925,0.76231 -2.1158,3.86217 -4.0518,6.88858 -3.8376,5.99919 -5.7124,6.64338 -9.1586,3.14707 z"
         id="path5" />
      <path
         style="fill:#9d565e"
         d="m 1097,1187.3487 c 0,-0.9082 6.0277,-12.9457 13.3948,-26.75 15.0889,-28.2729 46.7215,-88.1772 62.1485,-117.6937 5.6328,-10.7772 14.1148,-26.8438 18.8491,-35.7035 4.7342,-8.85977 8.6076,-16.48072 8.6076,-16.93548 0,-0.45477 -3.2625,-3.58435 -7.25,-6.95464 -22.7601,-19.23709 -50.9976,-51.45887 -67.04,-76.49913 -14.6866,-22.92417 -33.3576,-59.3199 -31.5504,-61.50202 0.5419,-0.65437 10.0652,-6.46808 21.1629,-12.91935 11.0976,-6.45127 26.4775,-15.39353 34.1775,-19.87168 7.7,-4.47814 21.7534,-12.61444 31.2298,-18.08064 9.4764,-5.46621 17.4322,-10.45526 17.6796,-11.08678 0.2473,-0.63152 -1.3063,-6.13362 -3.4527,-12.2269 -2.1463,-6.09327 -4.8242,-14.68938 -5.951,-19.10246 -2.4423,-9.56582 -5.9802,-31.8214 -5.9951,-37.7134 -0.01,-2.30504 -0.5731,-4.54005 -1.2606,-4.96668 -0.6875,-0.42663 -27.575,-0.79069 -59.75,-0.80902 l -58.5,-0.0333 -0.2718,-19.31795 -0.2719,-19.31795 60.1201,0.218 c 49.1506,0.17822 60.2702,-0.0249 60.9428,-1.11314 0.4525,-0.73213 1.3438,-4.09316 1.9808,-7.46896 1.7214,-9.12329 3.0257,-10.19411 2.3315,-1.91426 -0.6335,7.55694 -0.1664,8.79695 9.7982,26.00849 2.9019,5.01239 12.2828,15.40577 13.9051,15.40577 0.7464,0 0.9613,0.87923 0.5833,2.38558 -0.6881,2.74136 1.5119,5.16224 3.8692,4.25768 1.0532,-0.40418 1.5127,-2.00741 1.5127,-5.27854 0,-6.51831 0.9295,-4.95091 1.6262,2.74223 1.0127,11.18272 5.1695,34.08052 7.8774,43.39305 4.7452,16.31877 15.4158,38.65572 25.7027,53.80374 5.0203,7.39273 17.1004,21.72363 23.7679,28.19626 6.1064,5.92797 5.1932,6.5594 13.7395,-9.5 15.0023,-28.19089 35.0643,-64 35.8559,-64 0.1879,0 -0.3186,1.87132 -1.1255,4.15849 -1.3267,3.76036 -1.3077,4.33479 0.1993,6 0.9553,1.05555 3.0281,1.84151 4.8566,1.84151 1.9026,0 3.9087,0.79414 4.9709,1.96782 1.3725,1.51663 2.2105,1.73785 3.655,0.96482 1.841,-0.98527 2.074,-0.78943 2.283,1.91869 0.066,0.85892 1.7041,1.47064 4.4947,1.67877 2.4147,0.18009 4.7549,0.91728 5.2004,1.6382 0.5933,0.95996 2.056,-0.0246 5.4654,-3.67877 l 4.6553,-4.98953 -1.6147,3.87759 c -1.9865,4.77082 -37.176,72.44011 -72.3465,139.12241 -28.2747,53.60786 -34.3977,65.59754 -34.0431,66.6613 1.0738,3.22124 35.3619,21.26103 54.7796,28.82078 29.2439,11.3854 68.9806,19.0233 98.9237,19.0145 64.3532,-0.019 129.0935,-23.1927 181.0763,-64.81605 27.3241,-21.87879 47.9396,-44.65181 68.5104,-75.68053 12.0144,-18.12234 14.8817,-23.56357 13.23,-25.10655 -1.0712,-1.00066 -12.1189,-7.59946 -60.3273,-36.03379 -4.9979,-2.94781 -9.5277,-5.35966 -10.0665,-5.35966 -0.5387,0 -3.3904,3.45305 -6.3371,7.67344 -8.3486,11.95741 -19.2896,24.51868 -30.1057,34.56432 -5.4471,5.05902 -9.9038,9.56498 -9.9038,10.01322 0,0.44825 4.6623,9.46266 10.3606,20.03201 18.8172,34.90225 22.6394,42.38454 22.6357,44.31084 -0.01,2.85792 -26.419,23.40617 -30.0871,23.40617 -1.6092,0 -6.969,-9.72121 -39.1464,-71 -35.759,-68.09983 -56.743,-108.72026 -58.116,-112.5 -0.4145,-1.141 0.959,-0.17462 3.1978,2.25 3.9721,4.30173 5.534,5.06444 6.6554,3.25 0.3399,-0.55 2.3287,-1 4.4195,-1 2.2894,0 5.1496,-0.90262 7.191,-2.2694 1.8642,-1.24817 5.7491,-3.378 8.6329,-4.73297 5.632,-2.64611 5.6513,-2.71254 2.7524,-9.49763 -0.7049,-1.65 -1.556,-3.9 -1.8912,-5 -0.5946,-1.95122 -0.5735,-1.95352 0.8671,-0.0943 2.1414,2.76385 19.5877,33.96631 31.6413,56.58996 5.7128,10.72263 11.0697,19.62294 11.904,19.77846 1.8895,0.35218 19.0624,-18.55952 27.6892,-30.49262 7.467,-10.32885 20.8584,-36.90674 25.1754,-49.96557 1.6698,-5.05122 4.5028,-16.18872 6.2955,-24.75 C 1596.2625,714.83142 1598,710.3044 1598,717 c 0,3.30023 1.9201,4.00612 4.0187,1.47742 0.7295,-0.87897 2.0494,-1.27319 3.1225,-0.93261 1.6959,0.53827 2.3561,-0.39494 1.9772,-2.79481 -0.065,-0.4125 0.5263,-0.75 1.3142,-0.75 0.7879,0 1.7183,-0.9 2.0674,-2 0.3491,-1.1 1.2051,-2 1.9021,-2 0.697,0 2.4702,-1.35 3.9403,-3 1.4702,-1.65 3.1196,-3 3.6653,-3 0.5458,0 0.9923,-0.675 0.9923,-1.5 0,-0.825 0.9,-2.4 2,-3.5 1.1,-1.1 2,-2.39825 2,-2.88499 0,-0.48674 1.0858,-1.59642 2.4128,-2.46594 1.3271,-0.86952 3.4628,-3.68329 4.7461,-6.25281 1.5419,-3.0873 3.2673,-4.99748 5.0872,-5.63189 2.5392,-0.88517 3.2361,-1.89714 2.8372,-4.11963 -0.084,-0.47039 0.3084,-1.4118 0.8729,-2.09201 1.4821,-1.78575 0.2433,-2.55273 -4.1229,-2.55273 -2.1083,0 -3.8333,-0.38213 -3.8333,-0.84918 0,-1.55521 19.0298,-2.14042 69.7716,-2.14565 l 50.2716,-0.005 -0.2716,19.25 -0.2716,19.25 H 1694 c -32.175,0 -59.0625,0.36406 -59.75,0.80902 -0.7045,0.45594 -1.2546,2.85628 -1.2606,5.5 -0.013,5.78709 -3.406,28.11885 -5.5453,36.49796 -0.8697,3.40616 -3.401,11.69887 -5.6253,18.42824 -2.2243,6.72938 -3.8071,12.8529 -3.5174,13.60783 0.2897,0.75494 5.4029,4.20054 11.3627,7.6569 58.2229,33.76627 90.1553,52.59164 91.7554,54.09328 1.8854,1.76934 1.8433,1.96676 -2.3713,11.10407 -9.4612,20.51217 -28.3384,52.09975 -41.1978,68.93705 -15.568,20.38366 -37.8029,44.33152 -55.1802,59.43107 l -6.8298,5.93458 8.4252,16.00003 c 4.6338,8.8 12.6013,23.875 17.7056,33.5 5.1042,9.625 14.2286,26.95 20.2765,38.5 6.0479,11.55 16.9452,32.25 24.2162,46 24.51,46.35 32.656,62.497 32.0356,63.5008 -0.9897,1.6014 -158.9686,1.3541 -160.2617,-0.2508 -0.554,-0.6875 -1.9421,-4.9812 -3.0849,-9.5417 -8.6742,-34.6167 -31.2931,-66.5542 -61.2773,-86.5223 -53.0047,-35.2986 -119.3165,-35.1563 -172.3756,0.37 -30.5248,20.4382 -52.1687,52.5461 -62.485,92.694 l -1.0921,4.25 h -80.4614 c -74.1308,0 -80.4615,-0.1299 -80.4615,-1.6513 z m 130.7233,-39.5987 c 0.5326,-0.6875 3.1422,-5.975 5.7991,-11.75 5.7086,-12.4079 13.6535,-25.9985 20.6948,-35.4008 11.72,-15.6498 30.9433,-33.3013 47.492,-43.6089 3.965,-2.4697 7.2222,-4.9403 7.2382,-5.4903 0.016,-0.55 -5.2532,-2.9717 -11.7092,-5.3816 -14.4208,-5.383 -38.2881,-16.8852 -51.94,-25.0311 -5.611,-3.348 -10.7927,-6.0873 -11.515,-6.0873 -0.7222,0 -4.7759,6.8625 -9.0081,15.25 -4.2322,8.3875 -14.8526,28.75 -23.6007,45.25 -34.3869,64.8577 -38.0342,71.9179 -37.5538,72.6952 0.2736,0.4426 14.5908,0.8048 31.816,0.8048 23.8717,0 31.5487,-0.2972 32.2867,-1.25 z m 424.7231,0.3368 c 0.3104,-0.5023 -1.1797,-4.2148 -3.3113,-8.25 -2.1316,-4.0353 -10.2886,-19.4868 -18.1267,-34.3368 -7.838,-14.85 -17.508,-33.075 -21.4887,-40.5 -3.9807,-7.425 -11.4636,-21.7068 -16.6287,-31.7374 -5.165,-10.0306 -9.9686,-18.2431 -10.6746,-18.25 -0.7059,-0.01 -5.6559,2.6277 -11,5.8547 -16.8505,10.1751 -41.5978,21.8318 -57.4664,27.0683 -3.7125,1.2251 -6.75,2.62 -6.75,3.0998 0,0.4798 5.5125,4.6046 12.25,9.1662 15.0865,10.2144 32.0443,26.3472 42.8846,40.7984 5.2143,6.9511 10.5786,15.9078 15.8712,26.5 4.3972,8.8 8.6488,17.2375 9.448,18.75 l 1.4532,2.75 h 31.4875 c 17.9183,0 31.7307,-0.3935 32.0519,-0.9132 z M 1223.2662,946.75 c 1.4755,-2.8875 6.4274,-12.225 11.0041,-20.75 21.0695,-39.2456 28.7284,-53.96531 28.7127,-55.18317 -0.01,-0.72426 -2.9674,-3.79183 -6.5733,-6.81683 -9.9871,-8.37803 -26.4762,-27.17977 -35.2993,-40.25 -1.7636,-2.6125 -3.7474,-4.74616 -4.4084,-4.74146 -0.8853,0.006 -57.4389,33.14388 -69.702,40.84193 -1.2802,0.80366 -1.0062,1.91234 1.8703,7.56721 8.674,17.05183 29.6849,45.84956 45.5343,62.40975 9.9782,10.42578 23.1665,22.17257 24.8934,22.17257 0.707,0 2.4926,-2.3625 3.9682,-5.25 z M 1329.5,993.56476 c -18.2933,-6.77945 -21.9773,-8.37437 -22.9667,-9.94285 -1.1517,-1.82578 2.9211,-10.16907 32.5213,-66.62191 9.9493,-18.975 27.9303,-53.4 39.9578,-76.5 28.4892,-54.71612 28.3638,-54.48249 29.2309,-54.49192 0.4089,-0.004 3.9452,6.40442 7.8586,14.24192 3.9133,7.8375 12.8609,25.05 19.8834,38.25 7.0226,13.2 20.0789,38.175 29.0141,55.5 8.9352,17.325 20.1873,38.925 25.0046,48 18.0073,33.92296 21.3573,41.0789 19.8643,42.43243 -1.6269,1.47499 -31.7868,12.56757 -34.1702,12.56757 -0.9086,0 -2.3142,-1.0125 -3.1236,-2.25 -0.8093,-1.2375 -15.3531,-29.44445 -32.3194,-62.68212 -16.9663,-33.23766 -31.3407,-60.59643 -31.9432,-60.79726 -0.6025,-0.20082 -11.3253,19.79363 -23.8285,44.43212 -39.4618,77.76271 -41.3716,81.30378 -43.8189,81.24733 -1.1905,-0.0275 -6.2145,-1.55085 -11.1645,-3.38531 z M 1126.7678,549.99395 C 1105.1382,537.86144 1101,535.27973 1101,533.91818 c 0,-1.18728 15.6525,-28.71662 17.444,-30.68018 0.9091,-0.99635 4.1362,0.56967 15.3308,7.43954 13.407,8.22751 16.9784,11.11973 10.331,8.36628 -7.0047,-2.90144 -8.2701,0.24902 -8.2113,20.44376 0.026,8.86461 0.3865,12.25133 1.3849,13 4.5176,3.38776 9.0321,7.50802 8.1984,7.48258 -0.5378,-0.0164 -8.9573,-4.50571 -18.71,-9.97621 z m 562.685,-2.18737 c 6.2309,-4.86729 7.5472,-6.64665 7.5472,-10.20211 0,-1.91754 -0.4763,-3.78083 -1.0585,-4.14065 -0.5822,-0.35982 -0.8061,-1.84888 -0.4975,-3.30902 0.3086,-1.46014 0.7499,-5.81217 0.9807,-9.67118 0.2307,-3.859 0.5079,-7.459 0.6158,-8 0.3383,-1.69498 -0.039,-3.93295 -0.8888,-5.27237 -0.6261,-0.98688 -1.5009,-1.03701 -3.7347,-0.21403 l -2.917,1.07472 3,-2.50001 c 1.65,-1.375 3.5053,-2.51619 4.1229,-2.53597 0.6176,-0.0198 4.2696,5.47654 8.1156,12.21404 3.846,6.7375 7.8407,13.73653 8.8771,15.55339 l 1.8844,3.30339 -2.3791,1.96141 c -2.6509,2.18553 -21.4959,12.46318 -24.6209,13.42769 -1.4042,0.4334 -1.1204,-0.0698 0.9528,-1.6893 z"
         id="path4" />
      <path
         style="fill:#583672"
         d="m 1098,1186.9602 c 0,-1.3539 1.8917,-5.0788 15.9766,-31.4602 6.4601,-12.1 17.0376,-32.125 23.5054,-44.5 10.9192,-20.8921 20.0346,-38.1559 51.4004,-97.3481 7.7224,-14.57333 11.8297,-23.34395 11.341,-24.21728 -0.4215,-0.75306 -3.2316,-3.44328 -6.2448,-5.97828 -9.5103,-8.00094 -30.7914,-29.52071 -40.8208,-41.27856 -20.2927,-23.78996 -39.8287,-54.57776 -54.6346,-86.10176 -2.4344,-5.1832 -4.226,-9.74782 -3.9814,-10.14362 0.8566,-1.38609 77.2557,-45.28015 90.86,-52.20242 l 8.9017,-4.52947 2.588,2.39974 c 1.4235,1.31986 3.1328,2.39975 3.7986,2.39975 0.6658,0 1.5704,0.57844 2.0102,1.28542 1.0685,1.71753 9.7679,8.70371 10.9027,8.75559 1.3522,0.0618 9.397,7.57621 9.397,8.77747 0,0.57571 0.8207,1.30722 1.8237,1.62557 1.0031,0.31835 2.6909,1.36118 3.7508,2.31739 3.6963,3.33469 9.8915,7.68968 11.2153,7.88397 0.7335,0.10766 2.3904,1.33598 3.682,2.72961 2.1938,2.36716 2.8641,2.51121 10.1882,2.18937 4.6092,-0.20253 8.6642,0.11848 9.84,0.77897 1.1,0.61791 3.1117,1.13093 4.4704,1.14005 1.8625,0.0125 3.0499,1.06251 4.8249,4.26659 1.3014,2.34895 3.1038,4.25673 4.0296,4.26506 1.858,0.0167 7.9758,2.05313 9.9312,3.3058 1.2522,0.80222 7.8451,1.17414 9.7439,0.54967 1.5628,-0.51394 9.5,4.34331 9.5,5.81361 0,1.67243 1.6914,1.72149 2.2706,0.0659 0.3254,-0.93043 0.922,-0.82899 2.3333,0.39676 1.0429,0.90572 2.7317,1.80572 3.7529,2 2.3963,0.45586 -5.6969,16.82061 -50.2776,101.66221 -6.7364,12.81994 -12.0082,23.93361 -11.7153,24.69704 1.1931,3.10902 31.7936,19.55511 51.6361,27.75155 17.6127,7.2754 43.7438,14.2085 67.2084,17.8318 18.7313,2.8925 50.8656,3.1263 70.2916,0.5117 67.1313,-9.0357 124.8486,-38.09144 175.0071,-88.10106 14.8062,-14.76227 26.515,-29.247 40.0136,-49.5 12.9439,-19.42076 15.8651,-24.83024 14.3768,-26.62353 -0.6059,-0.73005 -15.5315,-10.00091 -33.168,-20.60191 -17.6365,-10.60101 -33.5159,-20.15843 -35.2874,-21.23871 -3.9477,-2.40724 -4.822,-1.84194 -10.7089,6.92386 -7.7509,11.54156 -17.8076,23.39293 -28.7391,33.8679 -6.0467,5.79425 -10.9941,11.14262 -10.9941,11.88527 0,0.74265 4.5441,9.66106 10.0981,19.8187 17.5726,32.13861 23.8334,44.46537 23.1072,45.49549 -2.7582,3.91231 -27.1158,21.61454 -29.2053,21.22534 -1.6648,-0.3101 -4.1657,-4.76477 -23.4396,-41.75241 -16.2427,-31.17043 -28.1354,-54.64571 -29.4012,-58.03571 -0.7675,-2.0556 -0.6355,-2.56159 0.697,-2.67234 4.3848,-0.36445 7.3881,-1.1362 8.414,-2.16214 0.6214,-0.6214 2.0523,-1.13523 3.1798,-1.14186 1.1275,-0.007 4.0069,-1.13074 6.3986,-2.49805 2.3918,-1.3673 4.7543,-2.23532 5.25,-1.92893 0.4958,0.30638 1.4639,0.20566 2.1514,-0.22383 1.3769,-0.86018 2.4525,-1.13008 8,-2.00741 2.0625,-0.32619 3.75,-1.01681 3.75,-1.53472 0,-0.51791 0.7652,-0.7943 1.7004,-0.61419 0.9352,0.18011 2.7148,-0.6869 3.9545,-1.92668 1.2398,-1.23978 2.9193,-2.25414 3.7323,-2.25414 0.8129,0 1.7657,-0.90653 2.1174,-2.01452 0.3517,-1.10799 1.057,-1.75643 1.5674,-1.44098 0.5104,0.31544 0.928,0.0445 0.928,-0.60211 0,-0.68247 0.8372,-0.95673 1.9957,-0.65377 1.3156,0.34404 3.045,-0.45836 5.075,-2.35465 1.9765,-1.84638 4.5225,-3.05048 7.109,-3.36225 5.8131,-0.70069 10.5581,-2.44613 11.2005,-4.12009 0.3064,-0.7984 1.3162,-1.45163 2.244,-1.45163 0.9279,0 3.2215,-1.17044 5.0971,-2.60099 1.8755,-1.43054 3.6685,-2.34259 3.9843,-2.02677 0.3158,0.31582 2.2635,-0.76373 4.3282,-2.39901 2.0647,-1.63528 4.2857,-2.97323 4.9356,-2.97323 2.3077,0 14.6128,-8.02311 19.9572,-13.0124 3.2224,-3.00826 6.0094,-4.8424 6.8614,-4.51547 0.9738,0.37368 1.2484,0.065 0.8547,-0.96079 -0.319,-0.83124 -0.3578,-1.51134 -0.086,-1.51134 1.3986,0 16.8388,8.46055 41.9437,22.98328 46.908,27.13544 50.7128,29.40781 51.1508,30.5491 1.1865,3.09192 -18.1851,39.25044 -33.1985,61.96762 -15.1764,22.96387 -37.9229,49.78598 -56.0901,66.14015 -4.8021,4.32292 -10.6782,9.65985 -13.058,11.85985 l -4.3268,4 11.0751,20.99996 c 6.0913,11.55 17.8515,33.825 26.1338,49.5 50.8656,96.2677 65.8137,124.9019 65.8137,126.071 0,1.2701 -158.6841,1.2492 -159.4691,-0.021 -0.3229,-0.5225 -1.4816,-4.46 -2.5749,-8.75 -6.1098,-23.9757 -20.5882,-49.8987 -37.7857,-67.6543 -22.5638,-23.2958 -56.7685,-40.3226 -89.8509,-44.7269 -11.532,-1.5352 -41.2295,-0.6169 -51.3194,1.587 -29.6127,6.4682 -61.3984,24.052 -79.9771,44.2431 -16.0068,17.396 -29.1329,40.12 -35.0918,60.7511 -1.7475,6.05 -3.5622,12.0125 -4.0327,13.25 l -0.8555,2.25 h -79.5215 c -54.3787,0 -79.5214,-0.3288 -79.5214,-1.0398 z m 132.9743,-43.7102 c 14.4502,-35.4731 37.2438,-63.0552 70.3128,-85.0846 7.686,-5.1201 9.5108,-6.7673 8.5,-7.6726 -0.7079,-0.6341 -6.0121,-2.8548 -11.7871,-4.935 -13.4293,-4.8374 -39.5672,-17.4192 -52.7164,-25.3758 -5.6191,-3.4001 -10.7941,-6.1707 -11.5,-6.1569 -0.706,0.014 -9.7859,16.3263 -20.1777,36.25 -10.3917,19.9237 -21.482,40.9499 -24.6451,46.7249 -11.3307,20.6867 -25.9608,49.1929 -25.9608,50.5835 0,1.1932 5.1723,1.4165 32.816,1.4165 h 32.816 z M 1654,1148.3556 c 0,-0.602 -12.9009,-25.3373 -32.0006,-61.3556 -4.5206,-8.525 -14.963,-28.4375 -23.2054,-44.25 -9.1664,-17.5852 -15.55,-28.75 -16.4381,-28.75 -0.7986,0 -3.7929,1.4952 -6.6539,3.3226 -16.0958,10.2806 -41.1313,22.4455 -60.1722,29.2381 -4.9664,1.7717 -9.1145,3.8328 -9.218,4.5803 -0.1035,0.7474 5.0595,4.734 11.4733,8.859 9.2913,5.9756 14.6204,10.4472 26.2192,22 18.9945,18.9192 30.1599,35.436 40.0533,59.25 l 3.2197,7.75 h 33.3613 c 18.3488,0 33.3614,-0.29 33.3614,-0.6444 z M 1241.9683,913.53547 c 11.6602,-21.70549 21.4231,-40.31619 21.6953,-41.3571 0.3686,-1.40966 -2.9062,-5.30994 -12.8343,-15.28547 -12.0304,-12.08782 -27.4557,-30.8514 -30.1079,-36.62368 -1.7815,-3.87749 -4.3456,-3.74612 -11.0231,0.56473 -8.2942,5.35461 -51.8206,31.71071 -58.5243,35.43761 -2.9293,1.62854 -5.5621,3.57633 -5.8507,4.32841 -1.1417,2.97519 17.2515,32.24601 31.6704,50.40003 13.1723,16.58454 38.8278,42 42.3966,42 0.7888,0 10.4394,-16.86842 22.578,-39.46453 z M 1328,992.08762 c -16.8047,-6.09626 -20.4809,-7.75219 -20.8048,-9.37161 -0.3263,-1.63129 9.4447,-21.70291 21.2812,-43.71601 3.9925,-7.425 12.1039,-22.725 18.0253,-34 16.9415,-32.25831 24.3716,-44.82298 25.4624,-43.05815 0.4199,0.67954 1.5411,0.14926 3.0258,-1.43115 1.2973,-1.38088 1.9946,-2.5107 1.5496,-2.5107 -0.4451,0 0.3349,-0.9 1.7334,-2 3.1587,-2.48463 3.1991,-2.48314 5.7093,0.21126 1.8018,1.93406 2.4335,2.0703 5.0389,1.08686 1.8487,-0.69778 2.9789,-0.75237 2.9789,-0.14387 0,0.56486 0.9538,0.67337 2.25,0.25596 1.2375,-0.39851 2.925,-0.64222 3.75,-0.54157 1.4074,0.17171 14.5653,0.83798 23.5,1.18998 2.2,0.0867 4.7295,-0.14194 5.6211,-0.50803 0.9083,-0.37296 2.2659,-0.0207 3.0878,0.80115 0.9578,0.95782 1.9567,1.15658 2.8789,0.57282 2.0439,-1.2938 4.1613,-1.13669 3.3072,0.24538 -0.4895,0.79195 -0.1731,0.95887 0.9793,0.51665 1.109,-0.42553 1.9506,-0.049 2.4141,1.08006 0.439,1.06929 1.8334,1.75099 3.6396,1.77939 2.7297,0.0429 3.5327,1.12661 11.8554,16 4.9101,8.77468 14.6765,26.97896 21.7032,40.45396 7.0267,13.475 17.3463,33.22401 22.9324,43.88669 5.5861,10.66269 10.0084,19.83103 9.8274,20.37409 -0.408,1.22398 -30.4275,12.61857 -33.4281,12.68843 -2.7137,0.0632 -3.3915,-1.18542 -39.459,-72.68828 -18.4602,-36.59676 -27.8659,-54.24262 -28.9169,-54.25 -1.0386,-0.007 -5.0272,7.07027 -11.9694,21.23907 -5.7265,11.6875 -20.0662,40.2625 -31.8659,63.5 -18.0234,35.49369 -21.7862,42.24174 -23.5306,42.19835 -1.1421,-0.0284 -6.8015,-1.76574 -12.5765,-3.86073 z m 45,-134.5286 c 0,-0.79254 0.408,-1.69316 0.9067,-2.00138 0.4987,-0.30822 0.6713,0.34022 0.3834,1.44098 -0.6106,2.33499 -1.2901,2.63015 -1.2901,0.5604 z M 1064,689.5 V 671 l 21.25,0.0741 c 11.6875,0.0408 23.275,0.43445 25.75,0.87484 2.475,0.44039 3.9375,0.85703 3.25,0.92587 -3.6886,0.36935 -6.5652,7.85345 -3.4213,8.90139 0.6442,0.21475 1.1713,1.28317 1.1713,2.37427 0,1.96103 5.7281,8.14747 8.5446,9.22824 0.8005,0.30718 1.4554,1.19587 1.4554,1.97488 0,0.779 1.125,2.1535 2.5,3.05443 1.4937,0.97873 2.5,2.58475 2.5,3.99001 0,1.82024 0.7347,2.53554 3.25,3.16402 4.3333,1.08274 -16.6008,2.16192 -45,2.3198 L 1064,708 Z m 643.5,17.57206 -9,-0.57206 4.5,-1.77859 c 6.8421,-2.70429 11.0795,-7.18929 14.4787,-15.32466 3.5877,-8.58649 3.6542,-13.96187 0.2041,-16.49727 -1.2696,-0.93302 10.426,-1.89948 22.9864,-1.89948 h 11.3759 l -0.2725,18.25 -0.2726,18.25 -17.5,0.0721 c -9.625,0.0396 -21.55,-0.18537 -26.5,-0.5 z"
         id="path3" />
      <path
         style="fill:#261c50"
         d="m 1172.75,1187.2717 c -40.5625,-0.1565 -73.75,-0.5179 -73.75,-0.8031 0,-0.7921 6.681,-13.8845 11.9595,-23.4363 2.5933,-4.6928 8.4606,-15.7323 13.0386,-24.5323 4.578,-8.8 16.1916,-30.85 25.8082,-49 9.6165,-18.15 22.0663,-41.775 27.6662,-52.5 5.5999,-10.725 13.4095,-25.4175 17.3546,-32.65 3.9451,-7.23256 7.1729,-13.60632 7.1729,-14.16394 0,-0.55763 -5.0005,-5.41074 -11.1122,-10.78469 -11.6569,-10.24983 -27.7382,-27.18186 -41.6292,-43.83144 -10.3068,-12.35356 -22.5459,-30.37897 -21.853,-32.18453 0.2873,-0.74878 0.032,-1.25431 -0.5666,-1.1234 -0.5989,0.1309 -1.3098,-0.3682 -1.5797,-1.10911 -0.382,-1.04878 -0.057,-1.1152 1.466,-0.29989 2.3514,1.25843 9.2747,-1.45194 9.2747,-3.6309 0,-2.39334 4.4636,-0.97828 4.8196,1.5279 0.358,2.52098 1.3392,2.77054 4.417,1.12339 1.6348,-0.87491 2.3506,-0.81906 3.2042,0.25 2.082,2.60762 5.7476,4.18976 6.5814,2.84066 0.4148,-0.67115 1.2585,-0.90858 1.8749,-0.52762 1.7154,1.06016 5.3204,-0.42736 4.7347,-1.95366 -0.2821,-0.7351 0.1353,-1.87454 0.9276,-2.5321 1.1534,-0.95724 1.4406,-0.87215 1.4406,0.42689 0,0.89234 0.4211,1.62244 0.9358,1.62244 0.5146,0 3.5943,3.2625 6.8436,7.25 6.0048,7.36894 9.3801,12.58467 7.3204,11.31166 -1.8613,-1.15034 -1.1998,4.73879 0.8015,7.13617 1.0091,1.20881 3.031,2.49807 4.4931,2.86503 1.4621,0.36696 3.1033,1.49868 3.6472,2.51493 0.5439,1.01625 1.5979,1.61404 2.3422,1.32841 0.7945,-0.30485 1.5755,0.33001 1.8912,1.53724 0.2957,1.13111 1.3674,2.07326 2.3814,2.09368 1.014,0.0204 6.7874,4.29542 12.8299,9.5 6.0424,5.20458 11.566,9.46288 12.2746,9.46288 0.7086,0 2.5148,-2.08037 4.0137,-4.62304 1.499,-2.54267 3.4717,-5.57833 4.3837,-6.74591 1.6465,-2.10773 1.6546,-2.10329 1.1335,0.62304 -0.5435,2.84295 0.1945,3.35699 2.6175,1.82312 1.9556,-1.23798 4.0907,-0.22204 4.0907,1.94645 0,2.41785 1.8925,2.91521 4.9738,1.3071 3.6579,-1.90906 5.0357,-1.64322 4.7644,0.91924 -0.1816,1.71553 0.2836,2.25713 1.9585,2.28004 2.8791,0.0394 4.0302,1.25378 1.9464,2.05341 -0.9037,0.34679 -1.6431,1.2612 -1.6431,2.03201 0,1.11881 0.3773,1.16588 1.8705,0.23337 1.538,-0.96054 2.287,-0.77999 4.2148,1.01605 1.2895,1.2013 2.9228,1.96226 3.6296,1.69103 1.8273,-0.70119 1.728,-0.39237 -2.7149,8.44409 -2.2,4.37558 -4,8.8058 -4,9.84492 0,2.24561 3.2997,4.5185 19.7548,13.60762 47.385,26.17336 102.9809,39.22696 152.2573,35.74916 56.9252,-4.0177 100.7472,-19.3471 150.9922,-52.81894 8.4873,-5.65404 16.3261,-12.13742 38.3485,-31.71785 3.6096,-3.20929 7.0581,-5.52898 7.6635,-5.15484 2.1998,1.35957 12.3262,1.29034 13.7102,-0.0937 0.7397,-0.7397 1.3289,-1.58597 1.3092,-1.88062 -0.02,-0.29464 -0.036,-0.92454 -0.036,-1.39977 0,-0.47524 1.6875,-0.81274 3.75,-0.75 3.2706,0.0995 3.75,-0.17751 3.75,-2.16691 0,-1.25454 0.675,-2.71015 1.5,-3.23469 2.2788,-1.4489 5,-1.16826 5,0.51566 0,0.825 0.45,1.5 1,1.5 0.55,0 1,-0.45 1,-1 0,-0.55 0.9,-1 2,-1 1.2899,0 2,-0.66667 2,-1.87756 0,-1.03265 0.67,-2.43364 1.489,-3.1133 0.8189,-0.67967 1.2239,-1.66471 0.8999,-2.18898 -0.7375,-1.19325 2.525,-3.74578 4.842,-3.78836 0.9656,-0.0177 1.9907,-1.06654 2.3183,-2.37195 0.3701,-1.47442 1.8872,-2.85016 4.101,-3.71878 1.9325,-0.75825 3.9149,-2.12842 4.4053,-3.04483 0.4905,-0.9164 2.1411,-1.97801 3.6681,-2.35912 1.527,-0.38112 3.4514,-1.28536 4.2764,-2.00942 1.2681,-1.11295 3.4184,-1.30732 7.25,-0.65532 1.6774,0.28543 0.4391,2.80138 -5.9009,11.9892 -14.6963,21.29783 -43.9845,53.85154 -62.8491,69.85645 l -6,5.09046 4.1219,7.84576 c 2.2671,4.31511 8.2011,15.49571 13.1867,24.84571 9.3866,17.6036 26.0478,49.1214 49.6913,94 27.1187,51.4752 36.5001,69.4625 36.5001,69.9828 0,0.2911 -35.6231,0.414 -79.1624,0.2732 l -79.1623,-0.256 -1.2497,-6 c -5.1399,-24.6784 -22.4203,-54.7245 -42.6125,-74.0916 -22.8364,-21.9035 -53.9042,-36.9765 -85.1803,-41.3266 -11.1115,-1.5455 -35.5502,-1.3331 -46.1328,0.401 -49.1074,8.0466 -90.3581,38.4108 -113.1671,83.3011 -4.7183,9.2861 -7.4059,16.6291 -12.5235,34.2161 l -1.3094,4.5 -5,0.028 c -2.75,0.015 -38.1875,-0.1 -78.75,-0.2565 z m 58.4945,-42.5217 c 1.1735,-2.8875 4.6431,-10.2 7.7103,-16.25 14.5472,-28.6946 32.9676,-49.3001 61.3506,-68.6282 6.493,-4.4216 11.6335,-8.5551 11.4234,-9.1855 -0.2102,-0.6305 -6.1976,-3.3017 -13.3055,-5.936 -14.6779,-5.44 -40.4211,-17.8916 -54.2479,-26.2389 -5.1285,-3.0961 -10.0161,-5.4903 -10.8612,-5.3204 -0.8452,0.17 -4.2201,5.484 -7.4997,11.809 -10.4496,20.1531 -28.7932,55.0054 -37.1056,70.5 -17.7771,33.1368 -27.6977,52.7091 -27.1588,53.5811 0.3269,0.5289 14.7839,0.9189 34.0643,0.9189 h 33.4964 z m 423.2525,4.2549 c 0.5514,-0.8922 -4.7445,-11.3117 -31.7693,-62.5049 -4.3552,-8.25 -14.2271,-27.15 -21.9377,-42 -16.2919,-31.3769 -16.3636,-31.5 -18.3466,-31.5 -0.8308,0 -6.1079,2.78 -11.727,6.1778 -13.029,7.8786 -39.2982,20.5909 -52.2164,25.2689 -13.4127,4.857 -14.5,5.3463 -14.5,6.526 0,0.5585 3.9375,3.5546 8.75,6.6579 22.7542,14.673 40.6625,32.138 54.2113,52.8694 4.8192,7.3741 13.008,23.27 17.9015,34.75 l 2.0247,4.75 h 33.4973 c 21.1429,0 33.724,-0.367 34.1122,-0.9951 z m 5.9168,-221.86542 c 0.2925,-0.47329 0.2751,-1.11728 -0.039,-1.4311 -0.7803,-0.78038 -3.375,0.29485 -3.375,1.39861 0,1.14261 2.7118,1.16842 3.4138,0.0325 z M 1338,994.30499 c -13.0624,-4.67737 -28.6686,-10.65653 -29.2579,-11.20952 -0.4168,-0.39117 0.6295,-3.27268 2.3251,-6.40335 3.1272,-5.77363 4.5774,-7.26522 3.6626,-3.76694 -0.3532,1.35055 -0.09,1.76634 0.8834,1.39301 0.7627,-0.29269 1.3868,-1.15902 1.3868,-1.92518 0,-0.76615 0.8734,-1.39301 1.941,-1.39301 2.6236,0 3.6104,-1.85118 1.4324,-2.68697 -1.0086,-0.387 -1.9205,-0.17158 -2.1468,0.50706 -0.3802,1.1407 -3.2266,1.71846 -3.2266,0.65495 0,-0.91963 7.0059,-14.47504 7.4812,-14.47504 0.2508,0 0.197,0.675 -0.1196,1.5 -0.3166,0.825 -0.047,1.5 0.5988,1.5 0.7465,0 0.9258,0.7831 0.4922,2.14948 -0.6302,1.98557 -0.4126,2.10571 2.8546,1.57553 2.4799,-0.40245 3.6927,-0.1676 4.0586,0.78591 0.287,0.74793 -0.015,1.55233 -0.672,1.78757 -0.6566,0.23523 -0.8591,0.78655 -0.4499,1.22514 0.4091,0.43859 1.5695,0.0502 2.5787,-0.86309 2.4724,-2.23747 3.1993,-2.0905 2.9156,0.58946 -0.1653,1.56186 0.2206,2.14062 1.2618,1.89235 0.825,-0.19671 2.625,-0.43902 4,-0.53848 1.375,-0.0995 3.4,-0.67624 4.5,-1.28175 1.1,-0.60551 3.8251,-1.07012 6.0558,-1.03247 2.2306,0.0377 4.5931,-0.26367 5.25,-0.66961 0.6568,-0.40594 1.1942,-0.47442 1.1942,-0.15217 0,1.67771 -15.6495,31.49846 -16.5,31.44137 -0.55,-0.0369 -1.675,-0.30884 -2.5,-0.60425 z M 1469.6774,984.75 c -7.3117,-13.68085 -10.2415,-20.71411 -7.4774,-17.95 1.9027,1.9027 7.5783,1.51585 8.0693,-0.55 0.3285,-1.38215 0.654,-1.17195 1.5486,1 0.92,2.23375 1.7667,2.75 4.5107,2.75 1.8579,0 6.144,0.28911 9.5247,0.64246 4.317,0.45121 6.1467,0.30238 6.1467,-0.5 0,-0.62835 -0.675,-1.14246 -1.5,-1.14246 -0.825,0 -1.5,-0.6382 -1.5,-1.41821 0,-2.73252 1.2302,-4.58179 3.048,-4.58179 2.5143,0 3.2402,-1.5159 1.441,-3.00914 -1.6964,-1.40785 -1.9512,-3.58718 -0.5227,-4.47004 0.5315,-0.32848 2.338,2.11997 4.0144,5.44098 1.6765,3.32101 2.5916,6.0382 2.0337,6.0382 -0.5579,0 -1.0144,0.92958 -1.0144,2.06574 0,1.13616 -0.4484,2.90356 -0.9964,3.92756 -1.1153,2.08388 -0.3628,5.0067 1.2889,5.0067 0.5932,0 2.0662,-0.92781 3.2733,-2.06181 l 2.1947,-2.0618 2.041,3.3118 c 1.1226,1.8215 2.189,3.89926 2.3698,4.61726 0.2184,0.86757 -5.038,3.29495 -15.6713,7.2369 -8.8,3.26231 -16.3025,5.93736 -16.6723,5.94456 -0.3698,0.007 -3.1374,-4.59941 -6.1503,-10.23691 z m 27.9268,-20.47917 c -1.0165,-1.01651 -1.8553,0.51389 -1.0213,1.86338 0.6301,1.01942 0.8656,1.02021 1.2044,0.004 0.2315,-0.69479 0.1492,-1.53513 -0.1831,-1.86742 z M 1481,967 c 0,-0.55 0.45,-1 1,-1 0.55,0 1,0.45 1,1 0,0.55 -0.45,1 -1,1 -0.55,0 -1,-0.45 -1,-1 z m -370.333,-90.75 c -2.3397,-3.89017 -5.8853,-10.6939 -6.7282,-12.91086 l -1.0431,-2.74377 2.5521,2.75384 c 1.4037,1.51461 2.5522,3.08064 2.5522,3.48007 0,0.39943 0.8665,1.46818 1.9256,2.37499 1.2921,1.10631 1.7338,2.38237 1.3425,3.87861 -0.3993,1.52685 -0.2218,2.00655 0.5629,1.52155 0.743,-0.4592 0.9366,-0.16251 0.5506,0.84363 -0.6635,1.72902 -1.0487,1.90918 -1.7146,0.80194 z"
         id="path2" />
    </g>
  </g>
</svg>
